PathFileType	4	(X/Y/Z)	C:/Users/opensim2020/Desktop/walking_exp_matlab/subject01_walking13_straight_02.trc																																																																																																																												
DataRate	CameraRate	NumFrames	NumMarkers	Units	OrigDataRate	OrigDataStartFrame	OrigNumFrames																																																																																																																								
100	100	4	42	mm	100	1175	172																																																																																																																								
Frame#	Time	LFHD			RFHD			LBHD			RBHD			C7			T10			CLAV			STRN			RBAK			LSHO			LUPA			LELB			LFRM			LWRA			LWRB			LFIN			RSHO			RUPA			RELB			RFRM			RWRA			RWRB			RFIN			LASI			RASI			LPSI			RPSI			LTHI			LKNE			LTIB			LANK			LHEE			LTOE			RTHI			RKNE			RTIB			RANK			RHEE			RTOE			*39			*40			*41		
		X1	Y1	Z1	X2	Y2	Z2	X3	Y3	Z3	X4	Y4	Z4	X5	Y5	Z5	X6	Y6	Z6	X7	Y7	Z7	X8	Y8	Z8	X9	Y9	Z9	X10	Y10	Z10	X11	Y11	Z11	X12	Y12	Z12	X13	Y13	Z13	X14	Y14	Z14	X15	Y15	Z15	X16	Y16	Z16	X17	Y17	Z17	X18	Y18	Z18	X19	Y19	Z19	X20	Y20	Z20	X21	Y21	Z21	X22	Y22	Z22	X23	Y23	Z23	X24	Y24	Z24	X25	Y25	Z25	X26	Y26	Z26	X27	Y27	Z27	X28	Y28	Z28	X29	Y29	Z29	X30	Y30	Z30	X31	Y31	Z31	X32	Y32	Z32	X33	Y33	Z33	X34	Y34	Z34	X35	Y35	Z35	X36	Y36	Z36	X37	Y37	Z37	X38	Y38	Z38	X39	Y39	Z39	X40	Y40	Z40	X41	Y41	Z41	X42	Y42	Z42
																																																																																																																															
87	0.86	-160.325	1650.03796	-1517.53528	-137.62653	1653.13196	-1406.59619	-275.96176	1606.65442	-1501.19714	-254.67	1608.35535	-1382.26404	-315.88147	1416.68726	-1454.26575	-361.79648	1123.7301	-1442.01392	-175.66933	1343.2489	-1467.80176	-136.30948	1188.56494	-1472.78723	-369.1666	1226.62183	-1364.85754	-254.23436	1373.39136	-1622.01648	-342.79437	1206.98499	-1692.75867	-395.29526	1064.11414	-1687.11145	-378.59702	948.34521	-1709.02502	-314.60999	823.65668	-1692.2063	-372.71841	827.22192	-1708.33032	-340.32129	751.91644	-1724.36389	-222.23224	1378.52393	-1311.49548	-269.15466	1186.75696	-1194.87964	-262.96298	1058.49438	-1184.37231	-168.62914	973.49036	-1188.00146	-47.12085	938.73962	-1250.07727	-66.61607	908.16077	-1205.79895	10.63897	884.18439	-1224.21448	-184.25687	918.43561	-1554.36951	-191.16457	915.64709	-1336.28174	-371.36667	926.65851	-1512.41321	-374.36566	936.57489	-1369.88611	-137.69753	603.30347	-1634.66052	-94.01578	480.01645	-1611.60571	-76.82461	296.78796	-1624.78699	-7.49561	80.52892	-1581.26746	-32.0107	36.15013	-1522.29285	139.40543	95.66464	-1594.71423	-319.94067	596.28174	-1283.28369	-358.51385	438.80637	-1307.25928	-468.52185	299.60074	-1298.07898	-568.72925	115.66882	-1340.45447	-630.00354	98.2887	-1386.70166	-450.16379	35.8988	-1351.42993	-150.74547	1687.17407	-1426.99963	-1973.14673	1023.60486	3101.86157	-2012.61023	1022.13092	3140.55005
88	0.87	-147.25357	1648.78271	-1520.16431	-124.9269	1651.96704	-1409.19983	-262.90436	1605.17285	-1504.15894	-241.95244	1606.95837	-1385.21777	-302.51572	1415.25354	-1457.00806	-348.08249	1122.25464	-1444.12402	-162.21321	1341.93677	-1470.25317	-122.59498	1187.26709	-1474.72437	-355.73508	1225.31409	-1367.32507	-240.43166	1371.52368	-1624.67407	-329.28305	1205.05127	-1695.27588	-382.18185	1062.40967	-1688.45056	-366.59952	946.42346	-1709.94666	-304.41312	821.09399	-1692.94824	-362.61267	825.18304	-1708.64307	-331.10199	749.31274	-1724.42712	-208.93422	1377.48254	-1314.05383	-255.76924	1186.1062	-1197.12341	-249.72185	1057.8717	-1186.16772	-155.12839	973.18298	-1189.69263	-33.69801	938.66943	-1251.93469	-52.87374	908.31934	-1207.38989	24.46033	884.5155	-1225.98901	-169.2662	917.09454	-1555.25562	-177.40132	914.49011	-1337.14807	-356.71478	925.02307	-1514.80505	-360.57657	934.86554	-1372.48816	-121.41101	603.06445	-1634.48145	-79.24025	479.41763	-1611.63416	-63.47551	294.94653	-1624.78064	4.90644	78.48077	-1580.91333	-20.21179	34.25004	-1522.23926	151.93335	92.96409	-1593.3573	-307.38181	595.67126	-1283.74939	-346.76971	437.9324	-1307.1449	-459.95102	301.73923	-1298.07422	-564.96625	119.9034	-1339.29102	-626.80597	104.62537	-1385.49219	-449.59183	35.9328	-1351.12158	-138.08797	1685.95276	-1429.69019	-1973.14014	1023.39856	3101.97266	-2012.5752	1022.07263	3140.77441
89	0.88	-134.17789	1647.57397	-1522.92126	-112.24975	1650.81213	-1411.82935	-249.78021	1603.71399	-1507.23242	-229.2462	1605.64246	-1388.24756	-289.16919	1413.79639	-1459.97351	-334.13165	1120.77441	-1446.2998	-148.64769	1340.72485	-1472.7832	-108.68858	1186.151	-1476.77539	-342.24368	1223.94702	-1369.9978	-226.5894	1369.86902	-1627.51392	-315.50488	1203.02539	-1697.68115	-368.71838	1060.61206	-1690.07654	-354.396	944.62805	-1711.20471	-293.53638	818.33099	-1693.45288	-351.6748	823.22632	-1709.33398	-321.05966	746.89795	-1724.81458	-195.75568	1376.58777	-1316.68713	-242.53435	1185.32129	-1199.51868	-236.56102	1057.16895	-1188.10828	-141.91246	972.77167	-1191.47339	-20.62491	938.26416	-1253.72522	-39.62657	908.01471	-1209.0072	37.76223	884.37305	-1227.50342	-154.1209	916.09583	-1556.39001	-163.33073	913.38666	-1338.12268	-341.99866	923.34918	-1517.07202	-346.41644	933.08124	-1374.90759	-104.08378	602.99084	-1633.83374	-63.66177	478.86365	-1611.19519	-51.3008	292.69815	-1624.47864	14.27367	75.59494	-1579.98511	-11.56266	31.97228	-1521.30859	161.60912	88.23109	-1591.75122	-294.02982	594.92279	-1284.43872	-334.06509	437.13074	-1307.15552	-451.39441	303.71887	-1297.70093	-560.77509	124.42373	-1338.2179	-622.86737	111.4698	-1384.20972	-449.11871	35.9367	-1350.82178	-125.38563	1684.7312	-1432.41333	-1973.15369	1023.53296	3101.91113	-2012.49866	1022.06226	3140.74536
90	0.89	-121.06133	1646.35388	-1525.70898	-99.49693	1649.69727	-1414.59546	-236.61331	1602.32532	-1510.50745	-216.63136	1604.38599	-1391.4054	-275.76074	1412.25024	-1462.97278	-319.87405	1119.21277	-1448.52832	-135.03255	1339.49463	-1475.41541	-94.65953	1185.05554	-1478.90979	-328.6124	1222.48792	-1372.80872	-212.75078	1368.00757	-1630.32996	-301.52408	1200.92371	-1700.17163	-354.91272	1058.74219	-1691.97534	-341.47748	942.66376	-1712.64087	-281.90805	815.88501	-1694.30994	-340.05673	821.39575	-1710.55798	-310.14664	744.66608	-1725.46912	-182.47212	1375.80103	-1319.44324	-229.964	1184.73621	-1201.97949	-223.93884	1056.62927	-1190.04102	-129.17885	972.12305	-1193.09949	-7.88352	937.4043	-1255.30981	-26.80906	907.50238	-1210.38318	50.50776	883.74493	-1228.98413	-138.79794	915.1723	-1557.78845	-148.51035	912.38757	-1339.29431	-327.06018	921.69263	-1519.06262	-331.81888	931.26971	-1377.20862	-86.0574	603.12567	-1632.70105	-47.91511	478.10663	-1610.64197	-40.01957	290.10428	-1623.86121	21.10578	72.37875	-1578.61426	-6.41408	31.27278	-1520.35828	168.65735	81.7459	-1590.11475	-279.62329	593.92584	-1285.22229	-320.34622	435.97156	-1307.19763	-441.41437	306.07065	-1297.73633	-556.01245	129.48698	-1337.10901	-618.13049	118.92825	-1383.07422	-448.46051	35.93179	-1350.47681	-112.65639	1683.56873	-1435.198	-1973.08557	1023.4472	3101.82837	-2012.51575	1022.09497	3140.73267
